<?xml version="1.0" encoding="UTF-8" standalone="no"?>
<svg
   xmlns:dc="http://purl.org/dc/elements/1.1/"
   xmlns:cc="http://creativecommons.org/ns#"
   xmlns:rdf="http://www.w3.org/1999/02/22-rdf-syntax-ns#"
   xmlns:svg="http://www.w3.org/2000/svg"
   xmlns="http://www.w3.org/2000/svg"
   id="svg8"
   version="1.1"
   viewBox="0 0 211.66666 236.00834"
   height="892"
   width="800">
  <defs
     id="defs2" />
  <metadata
     id="metadata5">
    <rdf:RDF>
      <cc:Work
         rdf:about="">
        <dc:format>image/svg+xml</dc:format>
        <dc:type
           rdf:resource="http://purl.org/dc/dcmitype/StillImage" />
        <dc:title></dc:title>
        <cc:license
           rdf:resource="http://artlibre.org/licence/lal" />
      </cc:Work>
      <cc:License
         rdf:about="http://artlibre.org/licence/lal">
        <cc:permits
           rdf:resource="http://creativecommons.org/ns#Reproduction" />
        <cc:permits
           rdf:resource="http://creativecommons.org/ns#Distribution" />
        <cc:permits
           rdf:resource="http://creativecommons.org/ns#DerivativeWorks" />
        <cc:requires
           rdf:resource="http://creativecommons.org/ns#ShareAlike" />
        <cc:requires
           rdf:resource="http://creativecommons.org/ns#Notice" />
        <cc:requires
           rdf:resource="http://creativecommons.org/ns#Attribution" />
      </cc:License>
    </rdf:RDF>
  </metadata>
  <g
     transform="translate(0,-60.99165)"
     id="layer1">
    <g
       transform="translate(-0.23793584,-17.764881)"
       id="g891">
      <path
         style="fill:none;stroke:#000000;stroke-width:0.26458332px;stroke-linecap:butt;stroke-linejoin:miter;stroke-opacity:1"
         d="m 98.889722,79.678386 -78.844507,40.389164 78.844507,44.5812 78.844508,-44.5812 z"
         id="path845" />
      <path
         style="fill:none;stroke:#000000;stroke-width:0.26458332px;stroke-linecap:butt;stroke-linejoin:miter;stroke-opacity:1"
         d="m 20.045215,120.06755 -0.284874,105.9967 79.129381,47.41602"
         id="path851" />
      <path
         style="fill:none;stroke:#000000;stroke-width:0.26458332px;stroke-linecap:butt;stroke-linejoin:miter;stroke-opacity:1"
         d="m 177.73423,120.06755 0.28487,105.9967 -79.129378,47.41602"
         id="path851-3" />
      <path
         style="fill:none;stroke:#000000;stroke-width:0.26458332px;stroke-linecap:butt;stroke-linejoin:miter;stroke-opacity:1"
         d="M 98.889721,164.64875 V 273.48027"
         id="path885" />
    </g>
    <path
       id="path893"
       d="m 19.522459,197.8317 c 0,0 -11.1479841,5.19965 -11.4303094,13.87279 3.7797614,9.95337 61.4554684,48.88379 90.5596344,55.81335 30.931046,-8.44147 73.932776,-35.35432 89.097576,-55.48062 -1.54107,-9.44168 -4.10464,-13.06655 -10.10055,-14.067"
       style="fill:none;stroke:#000000;stroke-width:0.26458332px;stroke-linecap:butt;stroke-linejoin:miter;stroke-opacity:1" />
    <path
       transform="matrix(0.26458333,0,0,0.26458333,0,60.99165)"
       id="path895"
       d="M 361.18133,776.20609 C 312.71941,761.82887 243.97263,727.40536 170.06879,680.51046 117.45571,647.12539 76.248239,616.50866 50.667145,591.79626 35.59272,577.23374 31.88618,571.91187 32.321039,565.45483 c 0.765195,-11.36208 13.976694,-29.45515 28.591503,-39.15591 12.057653,-8.00341 11.285459,-8.84536 11.285459,12.30486 v 18.62627 l 150.326049,90.00376 150.32603,90.00376 122.45572,-73.28964 c 67.35064,-40.30931 134.78686,-80.64811 149.85829,-89.6418 l 27.40259,-16.35214 0.0409,-19.59716 0.0409,-19.59715 2.9758,0.87284 c 16.47895,4.83346 24.85096,15.61212 30.31111,39.02442 l 2.75394,11.80847 -9.63257,11.34596 c -51.56231,60.73397 -168.84763,137.87488 -272.40783,179.16812 -16.84419,6.71638 -51.78347,18.63086 -54.06354,18.43594 -0.4529,-0.0388 -5.58473,-1.48291 -11.40408,-3.20934 z"
       style="fill:#999999;stroke:#000000;stroke-width:0.66482985;stroke-miterlimit:4;stroke-dasharray:none" />
    <path
       transform="matrix(0.26458333,0,0,0.26458333,0,60.99165)"
       id="path897"
       d="m 224.47514,239.53578 -147.286827,-83.4342 4.44838,-2.23974 C 84.083301,152.62999 150.07928,118.85186 228.29442,78.799334 306.50956,38.74681 371.14524,5.7830052 371.92924,5.5464354 372.71325,5.3098655 439.53258,38.992089 520.41665,80.395822 636.8555,139.99968 667.12181,156.00495 665.76516,157.2583 c -1.97515,1.82476 -289.28223,164.22081 -292.12197,165.1176 -1.03468,0.32676 -68.16031,-36.9513 -149.16805,-82.84012 z"
       style="fill:#aaeeff;stroke:#000000;stroke-width:0.66482985;stroke-miterlimit:4;stroke-dasharray:none" />
    <path
       transform="matrix(0.26458333,0,0,0.26458333,0,60.99165)"
       id="path899"
       d="M 222.97191,644.77757 75.504446,556.38951 75.937038,358.132 c 0.237925,-109.04163 0.654766,-198.47968 0.926313,-198.75123 0.271546,-0.27155 66.586029,36.87193 147.365519,82.54107 l 146.8718,83.03479 v 204.11949 c 0,112.26571 -0.14879,204.11273 -0.33064,204.10448 -0.18186,-0.008 -66.69101,-39.78961 -147.79812,-88.40303 z"
       style="fill:#2ad4ff;stroke:#000000;stroke-width:0.66482985;stroke-miterlimit:4;stroke-dasharray:none" />
    <path
       transform="matrix(0.26458333,0,0,0.26458333,0,60.99165)"
       id="path901"
       d="m 373.79674,529.32942 0.0509,-204.14919 147.74719,-83.47544 c 81.26097,-45.91149 147.83589,-83.40658 147.94427,-83.32243 0.10832,0.0842 0.40556,89.62691 0.66039,198.98389 l 0.46334,198.83089 -146.80528,87.97161 c -80.74291,48.38438 -147.54924,88.27271 -148.45851,88.64072 -1.31846,0.53363 -1.64291,-40.66945 -1.60231,-203.48005 z"
       style="fill:#006680;stroke:#000000;stroke-width:0.66482985;stroke-miterlimit:4;stroke-dasharray:none" />
  </g>
</svg>
